<svg xmlns="http://www.w3.org/2000/svg" viewBox="0 0 620 400" role="img" aria-label="RAG-powered support assistant">
  <defs>
    <linearGradient id="bg4" x1="0" y1="0" x2="1" y2="1">
      <stop offset="0" stop-color="#2e1065"/>
      <stop offset="1" stop-color="#5b21b6"/>
    </linearGradient>
    <linearGradient id="ac4" x1="0" y1="0" x2="1" y2="0">
      <stop offset="0" stop-color="#a78bfa"/>
      <stop offset="1" stop-color="#e9d5ff"/>
    </linearGradient>
  </defs>
  <rect width="620" height="400" fill="url(#bg4)"/>
  <g stroke="#c4b5fd" stroke-opacity="0.35" fill="none">
    <path d="M380 120 L470 90 M380 120 L470 160 M380 120 L455 230 M470 90 L560 130 M470 160 L560 130 M470 160 L455 230 M455 230 L560 260 M560 130 L560 260"/>
  </g>
  <g fill="#ddd6fe">
    <circle cx="380" cy="120" r="7"/>
    <circle cx="470" cy="90" r="7"/>
    <circle cx="470" cy="160" r="7"/>
    <circle cx="455" cy="230" r="7"/>
    <circle cx="560" cy="130" r="7"/>
    <circle cx="560" cy="260" r="7"/>
  </g>
  <g>
    <rect x="360" y="290" width="200" height="40" rx="20" fill="#ffffff" fill-opacity="0.12"/>
    <circle cx="385" cy="310" r="4" fill="#e9d5ff"/>
    <circle cx="403" cy="310" r="4" fill="#c4b5fd"/>
    <circle cx="421" cy="310" r="4" fill="#a78bfa"/>
  </g>
  <text x="60" y="120" font-family="Segoe UI, Arial, sans-serif" font-size="58" font-weight="700" fill="#ffffff" letter-spacing="2">RAG</text>
  <rect x="62" y="140" width="120" height="6" rx="3" fill="url(#ac4)"/>
  <text x="60" y="180" font-family="Segoe UI, Arial, sans-serif" font-size="21" fill="#e9d5ff">AI Support Assistant</text>
  <text x="60" y="335" font-family="Segoe UI, Arial, sans-serif" font-size="15" fill="#c4b5fd" opacity="0.95">Vector search &#183; Grounded LLM answers &#183; Citations</text>
</svg>
