<svg xmlns="http://www.w3.org/2000/svg" viewBox="0 0 620 400" role="img" aria-label="YUGA championship management platform">
  <defs>
    <linearGradient id="bg" x1="0" y1="0" x2="1" y2="1">
      <stop offset="0" stop-color="#2b1503"/>
      <stop offset="1" stop-color="#7c3a02"/>
    </linearGradient>
    <linearGradient id="accent" x1="0" y1="0" x2="1" y2="0">
      <stop offset="0" stop-color="#ff8d26"/>
      <stop offset="1" stop-color="#ffb26b"/>
    </linearGradient>
  </defs>
  <rect width="620" height="400" fill="url(#bg)"/>
  <g stroke="#ff8d26" stroke-opacity="0.14" fill="none">
    <circle cx="530" cy="80" r="120"/>
    <circle cx="530" cy="80" r="170"/>
    <circle cx="530" cy="80" r="220"/>
    <circle cx="60" cy="360" r="90"/>
    <circle cx="60" cy="360" r="140"/>
  </g>
  <g fill="#ff8d26" fill-opacity="0.55">
    <rect x="60" y="266" width="14" height="34" rx="3"/>
    <rect x="82" y="248" width="14" height="52" rx="3"/>
    <rect x="104" y="230" width="14" height="70" rx="3"/>
    <rect x="126" y="256" width="14" height="44" rx="3"/>
    <rect x="148" y="216" width="14" height="84" rx="3"/>
  </g>
  <text x="60" y="120" font-family="Segoe UI, Arial, sans-serif" font-size="64" font-weight="700" fill="#ffffff" letter-spacing="4">YUGA</text>
  <rect x="62" y="140" width="120" height="6" rx="3" fill="url(#accent)"/>
  <text x="60" y="180" font-family="Segoe UI, Arial, sans-serif" font-size="21" fill="#ffd9b3">Championship Management Platform</text>
  <text x="60" y="335" font-family="Segoe UI, Arial, sans-serif" font-size="15" fill="#ffbf8a" opacity="0.9">Real-time scoring &#183; 5,000+ users &#183; World Championship</text>
</svg>
